# xmcd CD database file
#
# Track frame offsets:
#	150
#	13759
#	27977
#	40797
#	60011
#	73050
#	89604
#	104059
#	118703
#	132633
#	148621
#	166029
#	180291
#	196096
#
# Disc length: 2792 seconds
#
# Revision: 10
# Processed by: cddbd v1.5.2PL0 Copyright (c) Steve Scherf et al.
# Submitted via: CDex 1.51
#
DISCID=bc0ae60e
DTITLE=Rod Stewart - As Time Goes By... The Great American Songbook Vol. II
DYEAR=2003
DGENRE=Jazz
TTITLE0=Time After Time
TTITLE1=I'm In The Mood For Love
TTITLE2=Don't Get Around Much Anymore
TTITLE3=Bewitched, Bothered and Bewildered
TTITLE4='Till There Was You
TTITLE5=Until The Real Thing Comes Around
TTITLE6=Where Or When
TTITLE7=Smile
TTITLE8=My Heart Stood Still
TTITLE9=Someone To Watch Over Me
TTITLE10=As Time Goes By (Duet With Queen Latifah)
TTITLE11=I Only Have Eyes For You
TTITLE12=Crazy She Calls Me
TTITLE13=Our Love Is Here To Stay
EXTD=YEAR: 2003
EXTT0=
EXTT1=
EXTT2=
EXTT3=
EXTT4=
EXTT5=
EXTT6=
EXTT7=
EXTT8=
EXTT9=
EXTT10=
EXTT11=
EXTT12=
EXTT13=
PLAYORDER=
